Coordinates
version=1
nRows=14
nColumns=36
inDegrees=yes

Units are S.I. units (second, meters, Newtons, ...)
If the header above contains a line with 'inDegrees', this indicates whether rotational values are in degrees (yes) or radians (no).

endheader
time	pelvis_tilt	pelvis_list	pelvis_rotation	pelvis_tx	pelvis_ty	pelvis_tz	hip_flexion_r	hip_adduction_r	hip_rotation_r	knee_angle_r	knee_angle_r_beta	ankle_angle_r	subtalar_angle_r	mtp_angle_r	hip_flexion_l	hip_adduction_l	hip_rotation_l	knee_angle_l	knee_angle_l_beta	ankle_angle_l	subtalar_angle_l	mtp_angle_l	lumbar_extension	lumbar_bending	lumbar_rotation	arm_flex_r	arm_add_r	arm_rot_r	elbow_flex_r	pro_sup_r	arm_flex_l	arm_add_l	arm_rot_l	elbow_flex_l	pro_sup_l
      1.99000000	    -19.67114199	      5.18614888	     -5.74078580	     -0.31542787	      0.66653851	     -0.56222346	     80.04911845	     -0.23518456	      9.70704401	     98.07074326	      1.71165737	     36.51662818	     -8.78541414	     -7.49998339	     77.97109177	     -7.21901184	     -2.74652304	     95.95588737	      1.67474617	     32.85345194	    -18.09328367	     -7.49998339	    -16.38776350	     -2.18188389	      5.09713731	    127.61079994	     -0.35291843	     22.58815506	     94.07998284	    111.85362166	    126.29577162	     -5.75396740	     26.97320959	     93.09990942	    105.29262352
      2.00000000	    -19.60124466	      5.47494691	     -6.29805117	     -0.31065338	      0.67649110	     -0.56111154	     78.56461515	      0.03279987	      9.97122466	     96.32772034	      1.68123588	     36.10359508	     -8.91344101	     -7.49998369	     76.22147729	     -7.41769992	     -3.35151109	     94.20583410	      1.64420198	     32.54937060	    -18.40543109	     -7.49998369	    -15.15649289	     -2.51520880	      6.02636610	    132.01679058	     -0.31239240	     23.06727391	     91.35057359	    111.59621508	    130.70193501	     -6.18792519	     27.98598052	     91.19144385	    104.82692940
      2.01000000	    -19.61701762	      5.71706212	     -6.89339400	     -0.30563204	      0.68694686	     -0.55999661	     77.05257961	      0.37077441	     10.25680194	     94.41119181	      1.64778615	     35.72329620	     -8.96505538	     -7.49998384	     74.49716736	     -7.64377282	     -3.92855432	     92.34922084	      1.61179797	     32.26664111	    -18.56300401	     -7.49998384	    -13.79328071	     -2.76010397	      7.10852118	    136.20813617	     -0.28157123	     23.58617607	     88.48737592	    111.44136748	    134.83201291	     -6.44133043	     29.00106406	     89.07377600	    104.56140656
      2.02000000	    -19.28128293	      5.97697484	     -7.35061720	     -0.30023608	      0.69884929	     -0.55922488	     75.02948833	      0.41289244	     10.54013627	     92.30471480	      1.61102119	     35.17830252	     -9.13190742	     -7.49998402	     72.24461103	     -7.55510457	     -4.46369749	     90.20091969	      1.57430304	     31.84303356	    -18.83355816	     -7.49998402	    -12.73008349	     -3.00809631	      7.91527620	    140.11360823	     -0.40069395	     24.90450214	     85.26612197	    111.23366242	    138.79337435	     -6.70032555	     30.50807561	     86.30457284	    104.23849114
      2.03000000	    -19.05226784	      6.20207716	     -7.77038813	     -0.29458432	      0.71112800	     -0.55870808	     73.06051849	      0.38875790	     10.79674964	     90.06472469	      1.57192599	     34.48215376	     -9.28576859	     -7.49998426	     70.05468784	     -7.43935589	     -5.01685521	     87.92853054	      1.53464236	     31.26672803	    -19.13465216	     -7.49998426	    -11.42918334	     -3.20338148	      8.70560829	    143.58602822	     -0.63879232	     26.31169367	     82.22185555	    110.80318348	    142.40233061	     -6.66225168	     32.00985386	     83.18556637	    103.76833246
      2.04000000	    -18.80198929	      6.37661329	     -8.18666377	     -0.28870258	      0.72422875	     -0.55816296	     70.98706888	      0.35054948	     11.02523047	     87.64038815	      1.52961333	     33.55461365	     -9.31890183	     -7.49998453	     67.74996545	     -7.29984113	     -5.48668147	     85.44336467	      1.49126804	     30.52397681	    -19.34441954	     -7.49998453	    -10.14151574	     -3.35278128	      9.43093026	    146.79420588	     -0.90261343	     27.93819107	     79.20893057	    110.32938643	    145.84833320	     -6.47865016	     33.61670841	     79.72709100	    103.25352131
      2.05000000	    -18.46264156	      6.48617595	     -8.52706120	     -0.28251858	      0.73834795	     -0.55779711	     68.71894825	      0.21443102	     11.19321293	     85.04321922	      1.48428418	     32.41167384	     -9.23295617	     -7.49998478	     65.22149322	     -7.08546177	     -5.93489673	     82.69131847	      1.44323577	     29.65074804	    -19.35878668	     -7.49998478	     -8.95439111	     -3.33273035	      9.99563039	    149.68226499	     -0.97368140	     29.65518031	     76.03867468	    109.85434984	    148.98252562	     -6.32622730	     35.32434820	     76.16194191	    102.72968687
      2.06000000	    -18.03448432	      6.57872896	     -8.80518922	     -0.27616714	      0.75337579	     -0.55741146	     66.27105071	     -0.00192373	     11.35708425	     82.26330308	      1.43576549	     31.11292483	     -9.22188708	     -7.49998500	     62.50833586	     -6.74481702	     -6.27077598	     79.68283608	      1.39072785	     28.63306722	    -19.31362900	     -7.49998500	     -7.86412096	     -3.26765509	     10.28175111	    152.27179092	     -0.90130965	     31.31044330	     72.79440684	    109.39980281	    151.76880813	     -6.12674005	     36.95992777	     72.63234464	    102.17857629
      2.07000000	    -17.58409111	      6.68072106	     -9.07436795	     -0.26972656	      0.76901746	     -0.55681061	     63.77803014	     -0.24070986	     11.50899353	     79.32442199	      1.38447234	     29.12607349	    -10.04642080	     -7.49998577	     59.72392562	     -6.36088859	     -6.59855949	     76.45511484	      1.33439348	     26.79039983	    -20.23964668	     -7.49998577	     -6.81952315	     -3.28048805	     10.31656109	    154.51088383	     -0.97703114	     32.89753632	     69.68366857	    108.36097758	    154.62527734	     -5.91458268	     39.05179499	     69.05689023	    100.86121245
      2.08000000	    -16.86628336	      6.69974582	     -9.37183902	     -0.26297683	      0.78598172	     -0.55596793	     60.89591713	     -0.51665821	     11.63790270	     76.22455073	      1.33036938	     27.45369073	     -9.61249938	     -7.49998597	     56.50981050	     -6.03835624	     -6.94819148	     72.98226614	      1.27378084	     25.50382257	    -19.82334208	     -7.49998597	     -5.92803090	     -3.21469087	     10.45655908	    155.95985459	     -0.77082292	     33.31328777	     66.54067225	    107.93769311	    156.26613686	     -5.30637580	     39.36018701	     65.72464743	    100.27317036
      2.09000000	    -16.08335404	      6.81892833	     -9.65032618	     -0.25646689	      0.80369624	     -0.55505999	     57.99196970	     -0.86148593	     11.87747145	     72.97683731	      1.27368609	     24.99711188	    -10.44493453	     -7.49998642	     53.21415911	     -5.51731978	     -7.34413102	     69.23176060	      1.20832217	     23.17849262	    -20.63672338	     -7.49998642	     -5.23872188	     -3.36445982	     10.42860983	    157.49993674	     -0.78149491	     33.87247341	     63.32311970	    107.26892237	    158.19543191	     -4.75714463	     40.19040460	     62.12879521	     99.53505275
      2.10000000	    -15.10132710	      6.79948035	     -9.83842825	     -0.24988854	      0.82265842	     -0.55432968	     54.76900553	     -1.34304809	     11.91912041	     69.48749633	      1.21278560	     22.43043790	    -10.62481428	     -7.49998668	     49.66563859	     -4.99900528	     -7.65314138	     65.28856301	      1.13950039	     20.76140723	    -20.59092352	     -7.49998668	     -4.77451231	     -3.35418615	     10.25691945	    158.37776713	     -0.60859918	     33.47846044	     60.44587075	    106.73804095	    159.41876780	     -4.15267063	     40.01646003	     59.17384567	     99.06459835
      2.11000000	    -14.20659483	      6.66922966	     -9.91094682	     -0.24343389	      0.84221925	     -0.55372251	     51.53564027	     -1.78816474	     11.76140885	     65.68564561	      1.14643079	     18.51118814	    -11.95221097	     -7.49998739	     46.22636827	     -4.41636262	     -7.72177484	     61.09783638	      1.06635841	     16.73255771	    -22.08526866	     -7.49998739	     -4.21626341	     -3.24002605	      9.79398433	    158.89341195	     -0.59419654	     33.27322884	     57.79244240	    105.91958062	    160.54970181	     -3.61525539	     40.48832234	     56.20165030	     98.69824780
      2.12000000	    -13.16534869	      6.44217660	     -9.98245542	     -0.23707554	      0.86267481	     -0.55314954	     48.04807116	     -2.27421346	     11.45264644	     61.62644303	      1.07558434	     15.06262674	    -11.81824160	     -7.49998780	     42.57691011	     -3.89988391	     -7.70537328	     56.73705913	      0.99024849	     13.27368811	    -22.28612202	     -7.49998780	     -3.91988621	     -3.05422442	      9.44260139	    159.35822017	     -0.64168352	     33.20037323	     55.09764385	    105.41022527	    161.38490273	     -2.98069336	     40.52358813	     53.44833558	     98.37999890
